<?xml version="1.0" encoding="utf-8"?>
<!-- Generator: Adobe Illustrator 19.0.0, SVG Export Plug-In . SVG Version: 6.00 Build 0)  -->
<svg version="1.1" id="Layer_1" xmlns="http://www.w3.org/2000/svg" xmlns:xlink="http://www.w3.org/1999/xlink" x="0px" y="0px"
	 viewBox="0 0 512 512" style="enable-background:new 0 0 512 512;" xml:space="preserve">
<style type="text/css">
	.st0{fill:#32BEA6;}
	.st1{fill:#3E3E3F;}
	.st2{fill:#5B5C5F;}
	.st3{fill:#FFFFFF;}
	.st4{fill:#F0F1F1;}
	.st5{fill:#CFD3D4;}
</style>
<g id="XMLID_1_">
	<circle id="XMLID_3_" class="st0" cx="256" cy="256" r="256"/>
	<path id="XMLID_4_" class="st1" d="M367.9,163.1c0-10.2-8.7-18.9-18.9-18.9H163.1c-10.2,0-18.9,8.7-18.9,18.9v130h223.7
		C367.9,293,367.9,163.1,367.9,163.1z"/>
	<path id="XMLID_5_" class="st2" d="M144.1,163.1v130h51.2l148.9-148.9H163.1C152.8,144.1,144.1,152.8,144.1,163.1z"/>
	<path id="XMLID_6_" class="st3" d="M391.5,399.4c-3.2,3.2-7.9,5.5-13.4,5.5h-245c-4.7,0-9.5-1.6-13.4-5.5L106.3,386h297.7
		L391.5,399.4z"/>
	<polygon id="XMLID_7_" class="st4" points="367.9,293 144.1,293 107.1,386 404.9,386 	"/>
	<path id="XMLID_8_" class="st5" d="M285.9,357.6c-0.8-2.4-3.9-3.9-7.1-3.9h-46.5c-2.4,0-5.5,1.6-7.1,3.9l-5.5,10.2
		c-0.8,2.4,0,3.9,2.4,3.9h65.4c2.4,0,3.9-1.6,2.4-3.9L285.9,357.6z"/>
	<path id="XMLID_9_" class="st5" d="M348.9,334.8c0,2.4-2.4,4.7-4.7,4.7H172.5c-2.4,0-4.7-2.4-4.7-4.7s2.4-4.7,4.7-4.7H345
		C347.4,330.8,348.9,332.4,348.9,334.8z"/>
	<path id="XMLID_10_" class="st5" d="M341.1,316.7c0,2.4-2.4,4.7-4.7,4.7h-156c-2.4,0-4.7-2.4-4.7-4.7s2.4-4.7,4.7-4.7h156
		C338.7,311.9,341.1,314.3,341.1,316.7z"/>
	<path id="XMLID_11_" class="st3" d="M297.7,200.1h-77.2l-7.1-15.8c-0.8-1.6-2.4-3.2-3.9-3.2h-14.2c-2.4,0-4.7,2.4-4.7,4.7
		s2.4,4.7,4.7,4.7h7.9c1.6,0,3.2,0.8,3.9,3.2l25.2,59.9c0.8,1.6,2.4,3.2,3.9,3.2h37c2.4,0,4.7-2.4,4.7-4.7s-2.4-4.7-4.7-4.7h-30.7
		c-1.6,0-3.2-0.8-3.9-3.2l-3.2-6.3h44.1c2.4,0,5.5-1.6,7.1-3.9l14.2-29.1C301.7,201.6,300.1,200.1,297.7,200.1z"/>
	<circle id="XMLID_12_" class="st3" cx="267.8" cy="267.8" r="7.1"/>
	<circle id="XMLID_13_" class="st3" cx="241.8" cy="267.8" r="7.1"/>
	<polygon id="XMLID_14_" class="st3" points="196.1,293 144.1,293 110.3,378.9 	"/>
</g>
</svg>
